<?xml version="1.0" encoding="UTF-8"?>
<svg xmlns="http://www.w3.org/2000/svg" xmlns:xlink="http://www.w3.org/1999/xlink" viewBox="0 0 512 512">
  <defs>
    <style>
      .cls-1 {
        fill: #f6b8c6;
      }

      .cls-2 {
        fill: none;
      }

      .cls-3 {
        fill: #d25b95;
      }

      .cls-4 {
        fill: #a871b5;
      }

      .cls-5 {
        fill: #fff6ed;
      }

      .cls-6 {
        fill: #ff8b8b;
      }

      .cls-7 {
        fill: #1f0e30;
      }

      .cls-8 {
        fill: #1f0e32;
      }

      .cls-9 {
        fill: #211033;
      }

      .cls-10 {
        fill: #8e4a9f;
      }

      .cls-11 {
        fill: #a04c93;
      }

      .cls-12 {
        fill: #f5b7c4;
      }

      .cls-13 {
        fill: #fef7f6;
      }

      .cls-14 {
        clip-path: url(#clippath);
      }

      .cls-15 {
        fill: #f6b7c5;
      }
    </style>
    <clipPath id="clippath">
      <rect class="cls-2" width="512" height="512" rx="61.32" ry="61.32"/>
    </clipPath>
  </defs>
  <g id="_レイヤー_1" data-name="レイヤー 1">
    <path class="cls-6" d="M-173.4,160.5s37.06-3.08,74.62,25.61,67.04,81.91,78.78,116.87,8.87,197.22,8.87,197.22l13.3,62.61-7.83,166.7s-145.8-108.87-149.87-205.88c-9.39-223.89-103.76-161.81-103.76-161.81l4.76-43.17,44.61-136.17,36.51-21.96Z"/>
  </g>
  <g id="_アイコン" data-name="アイコン">
    <g class="cls-14">
      <g>
        <rect class="cls-10" width="512" height="512"/>
        <path class="cls-15" d="M199.81,427.45s4.87-5.16,9.65-7.52c4.78-2.37,9.56-10.86,9.56-10.86l-3.15,11.36-9.84,29.49-4.23,7.84h-4.36l2.37-30.31h0Z"/>
        <path class="cls-6" d="M411.28,104.62s23.57-1.96,47.46,16.29c23.89,18.25,42.64,52.1,50.11,74.34,7.47,22.24,5.64,125.45,5.64,125.45l8.46,39.82-4.98,106.03s-92.74-69.25-95.33-130.95c-5.97-142.41-66-102.92-66-102.92l3.03-27.46,28.38-86.61,23.22-13.97h0Z"/>
        <path class="cls-5" d="M370.47,290.44s-.33-3.38,7.05-7.12,23.56-13.73,32.85-26.19c9.29-12.47,19.25-28.89,19.25-40.84,0-8.92-10.12-8.92-15.76-8.92s-36.54-1.68-48.22,18.97l-8.98,18.57,13.81,45.53h0Z"/>
        <path class="cls-6" d="M107.4,316.55s2.14,8.46,2.14,22.89-3.79,101.96-109.54,137.06c22.68,1.33,66.81,8.63,91.37-12.94-19.91,19.83-30.86,36.92-34.02,47.13,4.64,8.38,32.69,4.9,32.69,4.9h73.51l31.11-84.96s23.9-56.99,10.95-70.69c-12.94-13.69-117.21-174.73-117.21-174.73l-17.19,38.83s14.27,73.35,23.9,80.83,12.3,11.68,12.3,11.68h0Z"/>
        <path class="cls-12" d="M259.12,368.15v6.65l31.01-4.34,21.4-2.31s-6.52-5.3-3.26-25.39c3.26-20.09-49.16,25.39-49.16,25.39h0Z"/>
        <path class="cls-4" d="M180.73,188.99s-1.3,13.59-3.92,21.17c-2.61,7.59-7.22,28.21-6.53,67.68-15-31.71,5.19-86.22,5.19-86.22l5.26-2.63h0Z"/>
        <path class="cls-4" d="M181.97,257.94s38.06-22.96,52.49-55.57c14.43-32.6,11.7-35.01,11.7-46.75,4.48,6.93,28.15,57.86,92.11,60.27,7.7-7.3-64.73-54.84-64.73-54.84l-27.88-13.19-28.62,42.81-35.07,67.26h0Z"/>
        <path class="cls-6" d="M361.8,215.15s5.6,7.04,7.05,39.98-4.59,92.15,66.55,109.84c-10.83,11.38-39.7,11.82-39.7,11.82l14.27,11.83-5.31,5.31h-24.89s-46.11-6.48-54.25-58.33c0-4.35.57-5.06.41-6.52-3.08-28.36,4.94-72.28-12.26-116.82-17.2-44.54,48.14,2.89,48.14,2.89h0Z"/>
        <path class="cls-9" d="M346.68.22s17.88,8.21,29.99,18.34c17.59,14.52,73.12,79.09-4.1,148.02-4.54,3.22-51.99-17.01-51.99-17.01l-31.86-49.45v-20.25l38.81-20.76s5.99-10.18,5.99-23.75-4.73-25.26-11.58-34.16c3.49-2.93,13.27-3.29,13.27-3.29l11.45,2.32h0Z"/>
        <path class="cls-9" d="M72.03,154.4s-14.28-14.72-14.28-44.75,15.27-56.58,28.54-71.68c13.27-15.1,24.23-23.39,28.04-25.72s7.63-1.16,7.63,8.13-1.99,15.1-1.99,23.56,4.31,28.54,10.29,33.18,8.23,6.28,11.5,7.04-4.69,7.4-4.69,7.4l-61.89,64.05-3.15-1.21h0Z"/>
        <path class="cls-5" d="M88.41,237.59s7.47,20.91,15.68,28.38,27.13,43.56,31.11,57.74c1.49,5.15,1.16,6.14,1.16,10.71s3.07,14.1,7.05,19.25,17.26,15.1,33.35,18.42c16.09,3.32,30.7,5.64,41.65,5.64s71.18-12.19,107.02-50.03c7.2-16.07,4.48-30.26,5.54-44.99,1-13.94-14.89-69.4-14.89-69.4l-49.63-64.07-25.63-12.7-152.41,101.05h0Z"/>
        <path class="cls-13" d="M199.81,458.55s10.66-20.58,13.48-33.52,13.58-38.91,41.13-45.92c27.55-7.02,50.79,4.11,50.79,4.11l28.71,33.02,1.68,39.49-4.33,25.22-19.91,11.28-48.79-7.3-62.76-26.38h0Z"/>
        <path class="cls-1" d="M286.73,381.23s20.52,8.21,20.52,35.22-11.89,40.36-38.01,65.59c15.44,3.82,51.04,8.29,51.04,8.29l15.32-23.64v-44.8l-20.3-27.88-23.64-15.93-4.92,3.15h0Z"/>
        <path class="cls-7" d="M161.07,513.84s-9.88-13.85-9.88-29.37,12.11-49.03,52.56-57.99c.62,7.34-4.48,30.37-4.48,30.37,0,0,11.7-6.97,24.89-22.52,6.47-5.72,4.11,25.26,20.78,25.26,7.8,0,26.71-9.53,28.21-11.04,1.39-1.12,4.48-2.82,4.48,3.98,0,0-.91,16.63-8.38,29.49,8.96-4.15,14.02-3.82,18.08-3.82s10.45.17,15.43,3.49,7.51,6.43,10.83,6.43,19.91-3.49,19.91-35.68-19.58-80.56-79.06-73.34c1.49-5.48,22.34-12.7,55.19-11.58-3.73-4.23-2.7-24.51-2.7-24.51,0,0,10.04-7.45,18.74-16.67,1.12,6.47,20.88,80.17,81.36,62.75-6.97-3.49-16.68-13.19-19.91-17.42,7.22,3.49,32.6,4.73,48.28-6.72,22.9,1.74,69.19,30.86,84.62,51.52-11.16-3.24-14.31-6.97-29-6.97s-39.7,3.36-34.97,40.32c.91,6.1-2.74,4.94-2.74,4.94,0,0-17.71-14.85-37.95-14.85s-27.38,17.5-25.89,31.19c.25,3.73-2.07,4.56-2.07,4.56,0,0-14.52-15.35-28.13-15.35s-22.07,15.27-22.07,15.27c0,0-2.63,22.5-19.06,40.42-16.42,17.92-63.72,11.95-63.72,11.95l-93.36-14.13h0Z"/>
        <path class="cls-6" d="M119.33,317.84s-70.19,1.04-74.17-80.64,91.59-151.87,109.02-160.83c17.42-8.96,59.24-30.86,104.54-30.86s68.82,13.61,68.82,13.61c0,0-5.81,16.26-24.06,18.59-18.26,2.32-17.75,15.76,6.81,49.94,24.56,34.18,84.96,51.93,120.63,38.99-3.82,10.29-39.07,60.98-106.28,47.29-52.52-16.93-78.15-59.24-78.9-62.97-.87,5.89-11.99,38.04-17.71,48.49s-27.13,46.05-46.04,58.49c1.25-12.7-1.25-68.94-1.25-68.94,0,0-17.42,35.09-10.45,88.86-12.94,4.98-56.58,12.61-75.16-19.91-18.58-32.52-10.62-39.82-8.63-62.72-5.64,20.58-24.56,81.64,32.85,122.62h0Z"/>
        <path class="cls-3" d="M255.85,250.39s-.25,4.85,0,7.59c1.74-2.61,2.37-2.74,3.73-2.74s3.8,1.62,3.8,3.8-1.56,6.41-6.66,4.54c0,3.24,4.11,19.29,19.29,27.5-3.11,1.86-5.85,2.74-5.85,2.74l-.5.74s13.06-2.24,22.28-5.1c9.21-2.86,16.3-5.48,17.67-6.84-1.62-.5-4.98.74-4.98.74,0,0,7.09-7.72,7.09-22.4s-9.95-26.38-9.95-26.38c0,0-15.06,1-45.92,15.81h0Z"/>
        <path class="cls-3" d="M134.27,284.9s-.5,7.72,1.58,10.71c1.33-1.58,1.41-1.83,2.57-1.83s3.4,1.49,3.4,3.32-1.08,4.15-4.9,2.49c-.17,2.99,5.64,17.09,16.43,23.06-3.32,1.08-4.31.83-5.48,2.07,2.07.33,14.85.33,24.31-3.82,1.91-3.24,1.83-5.06,1.83-7.22s1.53-28.13-39.74-28.79h0Z"/>
        <path class="cls-8" d="M230.94,272.83s15.87-21.2,45.84-31.45c6.86-2.4,16.94-6.8,32.31-6.88,7.59,0,7.72-1,11.45,10.95,1.49-6.1,2.37-11.45,6.22-17.17,3.85-5.72,8.21-16.8,8.84-20.91-4.48,2.74-17.8,11.07-25.76,11.07s-42.52-.21-74.04,35.3c-8.29,10.62-7.14,14.69-7.14,14.69l2.28,4.4h0Z"/>
        <path class="cls-8" d="M168.23,296.93s-8-12.03-40.18-12.03c-5.97,0-6.12,2.74-6.12,6.12s6.2,12.67,7.28,17.9c-1.41.08-1.66-.5-4.82-5.81-3.15-5.31-13.11-17.26-29.28-27.88,2.82,0,10.37.5,17.09-1.08s5.39-1.33,9.54-1.33,36.05,3.36,47.37,22.03c-.38,1.12-.88,2.08-.88,2.08h0Z"/>
        <path class="cls-11" d="M201.18,344.35c1.66,0,2.57,1.74,3.65,1.74s5.06-2.24,10.95-2.24,12.94-3.32,14.6-6.63,3.15-.83,2.16,1.08-5.89,7.3-15.1,7.3-9.38,1.66-11.2,2.32-5.48.58-6.97-1.91,1.91-1.66,1.91-1.66h0Z"/>
      </g>
    </g>
  </g>
</svg>