<?xml version="1.0" encoding="UTF-8"?>
<svg id="Logo" xmlns="http://www.w3.org/2000/svg" xmlns:xlink="http://www.w3.org/1999/xlink" viewBox="0 0 1124.48 412.39">
  <defs>
    <style>
      .cls-1 {
        fill: #f6b8c6;
      }

      .cls-2 {
        fill: none;
      }

      .cls-3 {
        fill: #d25b95;
      }

      .cls-4 {
        fill: #a871b5;
      }

      .cls-5 {
        fill: #fff6ed;
      }

      .cls-6 {
        fill: #969696;
      }

      .cls-7 {
        fill: #ff8b8b;
      }

      .cls-8 {
        fill: #1f0e30;
      }

      .cls-9 {
        fill: #1f0e32;
      }

      .cls-10 {
        fill: #211033;
      }

      .cls-11 {
        fill: #8e4a9f;
      }

      .cls-12 {
        fill: url(#_名称未設定グラデーション_154);
      }

      .cls-13 {
        fill: #a04c93;
      }

      .cls-14 {
        fill: #f5b7c4;
      }

      .cls-15 {
        fill: #fef7f6;
      }

      .cls-16 {
        clip-path: url(#clippath);
      }

      .cls-17 {
        fill: #f6b7c5;
      }
    </style>
    <clipPath id="clippath">
      <rect class="cls-2" x="11.65" y="14.22" width="382.84" height="382.84" rx="61.32" ry="61.32"/>
    </clipPath>
    <linearGradient id="_名称未設定グラデーション_154" data-name="名称未設定グラデーション 154" x1="521.06" y1="29.48" x2="855.02" y2="363.44" gradientUnits="userSpaceOnUse">
      <stop offset="0" stop-color="#c787d6"/>
      <stop offset="1" stop-color="#be55d9"/>
    </linearGradient>
  </defs>
  <g class="cls-16">
    <g>
      <rect class="cls-11" x="11.65" y="14.22" width="382.84" height="382.84"/>
      <path class="cls-17" d="M161.05,333.83s3.64-3.86,7.21-5.63c3.58-1.77,7.15-8.12,7.15-8.12l-2.35,8.49-7.36,22.05-3.16,5.86h-3.26l1.77-22.66h0Z"/>
      <path class="cls-7" d="M319.18,92.45s17.63-1.46,35.49,12.18,31.88,38.96,37.47,55.58c5.58,16.63,4.22,93.8,4.22,93.8l6.33,29.78-3.72,79.28s-69.34-51.78-71.28-97.92c-4.47-106.48-49.35-76.96-49.35-76.96l2.26-20.53,21.22-64.76,17.36-10.44h0Z"/>
      <path class="cls-5" d="M288.66,231.39s-.25-2.53,5.27-5.32,17.62-10.27,24.56-19.59c6.95-9.32,14.39-21.6,14.39-30.54,0-6.67-7.57-6.67-11.79-6.67s-27.32-1.26-36.06,14.18l-6.72,13.89,10.33,34.04h0Z"/>
      <path class="cls-7" d="M91.96,250.91s1.6,6.33,1.6,17.12-2.83,76.24-81.91,102.48c16.96.99,49.96,6.45,68.32-9.68-14.89,14.82-23.08,27.6-25.44,35.24,3.47,6.26,24.44,3.66,24.44,3.66h54.97l23.26-63.53s17.87-42.61,8.19-52.85c-9.68-10.24-87.64-130.65-87.64-130.65l-12.86,29.03s10.67,54.84,17.87,60.44c7.2,5.6,9.19,8.73,9.19,8.73h0Z"/>
      <path class="cls-14" d="M205.4,289.49v4.97l23.19-3.24,16-1.73s-4.87-3.97-2.44-18.99-36.76,18.99-36.76,18.99h0Z"/>
      <path class="cls-4" d="M146.78,155.53s-.97,10.16-2.93,15.83c-1.95,5.67-5.4,21.09-4.88,50.6-11.21-23.71,3.88-64.47,3.88-64.47l3.93-1.97h0Z"/>
      <path class="cls-4" d="M147.72,207.08s28.46-17.17,39.25-41.55c10.79-24.38,8.75-26.18,8.75-34.96,3.35,5.18,21.05,43.26,68.87,45.06,5.76-5.46-48.4-41-48.4-41l-20.85-9.86-21.4,32.01-26.22,50.3h0Z"/>
      <path class="cls-7" d="M282.18,175.09s4.19,5.26,5.27,29.89c1.08,24.63-3.43,68.91,49.76,82.13-8.1,8.51-29.69,8.84-29.69,8.84l10.67,8.85-3.97,3.97h-18.61s-34.48-4.85-40.56-43.61c0-3.25.43-3.78.31-4.87-2.3-21.21,3.69-54.05-9.17-87.35-12.86-33.3,35.99,2.16,35.99,2.16h0Z"/>
      <path class="cls-10" d="M270.87,14.38s13.37,6.14,22.42,13.71c13.15,10.86,54.67,59.14-3.06,110.68-3.39,2.41-38.87-12.72-38.87-12.72l-23.82-36.97v-15.14l29.02-15.52s4.48-7.61,4.48-17.76-3.53-18.89-8.66-25.54c2.61-2.19,9.93-2.46,9.93-2.46l8.56,1.74h0Z"/>
      <path class="cls-10" d="M65.51,129.67s-10.68-11.01-10.68-33.46,11.41-42.31,21.34-53.6c9.93-11.29,18.12-17.49,20.97-19.23,2.85-1.74,5.71-.87,5.71,6.08s-1.49,11.29-1.49,17.62,3.22,21.34,7.69,24.81c4.47,3.47,6.15,4.7,8.6,5.26s-3.51,5.53-3.51,5.53l-46.28,47.89-2.35-.9h0Z"/>
      <path class="cls-5" d="M77.75,191.87s5.58,15.63,11.72,21.22c6.14,5.58,20.28,32.57,23.26,43.18,1.12,3.85.87,4.59.87,8s2.3,10.54,5.27,14.39,12.9,11.29,24.94,13.77c12.03,2.48,22.95,4.22,31.14,4.22s53.22-9.12,80.03-37.41c5.38-12.02,3.35-22.62,4.14-33.64.75-10.42-11.13-51.89-11.13-51.89l-37.11-47.91-19.17-9.49-113.96,75.56h0Z"/>
      <path class="cls-15" d="M161.05,357.09s7.97-15.39,10.08-25.06c2.11-9.68,10.15-29.09,30.76-34.34s37.98,3.07,37.98,3.07l21.46,24.69,1.26,29.53-3.24,18.86-14.89,8.44-36.48-5.46-46.93-19.73h0Z"/>
      <path class="cls-1" d="M226.04,299.27s15.34,6.14,15.34,26.33-8.89,30.18-28.42,49.04c11.55,2.85,38.16,6.2,38.16,6.2l11.46-17.68v-33.5l-15.18-20.85-17.68-11.91-3.68,2.36h0Z"/>
      <path class="cls-8" d="M132.08,398.43s-7.39-10.36-7.39-21.96,9.06-36.66,39.3-43.36c.47,5.49-3.35,22.71-3.35,22.71,0,0,8.75-5.21,18.61-16.84,4.84-4.28,3.07,18.89,15.54,18.89,5.83,0,19.97-7.13,21.09-8.25,1.04-.84,3.35-2.11,3.35,2.98,0,0-.68,12.44-6.26,22.05,6.7-3.1,10.48-2.85,13.52-2.85s7.81.12,11.54,2.61c3.72,2.48,5.61,4.81,8.09,4.81s14.89-2.61,14.89-26.68-14.64-60.24-59.12-54.84c1.12-4.09,16.7-9.49,41.27-8.66-2.79-3.16-2.02-18.33-2.02-18.33,0,0,7.51-5.57,14.02-12.46.84,4.84,15.61,59.95,60.83,46.92-5.21-2.61-12.47-9.86-14.89-13.03,5.4,2.61,24.38,3.53,36.1-5.03,17.12,1.3,51.74,23.08,63.27,38.52-8.35-2.42-10.7-5.21-21.68-5.21s-29.68,2.51-26.15,30.15c.68,4.56-2.05,3.69-2.05,3.69,0,0-13.25-11.11-28.38-11.11s-20.47,13.09-19.36,23.32c.19,2.79-1.55,3.41-1.55,3.41,0,0-10.86-11.48-21.03-11.48s-16.5,11.41-16.5,11.41c0,0-1.97,16.83-14.25,30.22-12.28,13.4-47.65,8.93-47.65,8.93l-69.81-10.56h0Z"/>
      <path class="cls-7" d="M100.88,251.87s-52.48.78-55.46-60.3c-2.98-61.07,68.49-113.56,81.51-120.26,13.03-6.7,44.29-23.08,78.17-23.08s51.46,10.17,51.46,10.17c0,0-4.34,12.16-17.99,13.9-13.65,1.74-13.27,11.79,5.09,37.34,18.36,25.56,63.53,38.83,90.2,29.15-2.85,7.69-29.22,45.6-79.47,35.36-39.27-12.66-58.44-44.29-58.99-47.08-.65,4.4-8.97,28.44-13.25,36.26-4.28,7.82-20.28,34.43-34.43,43.74.93-9.49-.93-51.55-.93-51.55,0,0-13.03,26.24-7.81,66.44-9.68,3.72-42.31,9.43-56.2-14.89-13.89-24.32-7.94-29.78-6.45-46.9-4.22,15.39-18.36,61.04,24.56,91.69h0Z"/>
      <path class="cls-3" d="M202.96,201.44s-.19,3.63,0,5.67c1.3-1.95,1.77-2.05,2.79-2.05s2.84,1.21,2.84,2.84-1.17,4.79-4.98,3.4c0,2.42,3.07,14.43,14.43,20.57-2.33,1.39-4.38,2.05-4.38,2.05l-.37.56s9.77-1.67,16.66-3.81c6.89-2.14,12.19-4.09,13.21-5.12-1.21-.37-3.72.56-3.72.56,0,0,5.3-5.77,5.3-16.75s-7.44-19.73-7.44-19.73c0,0-11.26.75-34.34,11.82h0Z"/>
      <path class="cls-3" d="M112.04,227.24s-.37,5.77,1.18,8c.99-1.18,1.06-1.36,1.92-1.36s2.54,1.12,2.54,2.48-.81,3.1-3.66,1.86c-.12,2.24,4.22,12.78,12.28,17.25-2.48.81-3.22.62-4.09,1.55,1.55.25,11.11.25,18.18-2.85,1.43-2.42,1.36-3.79,1.36-5.4s1.15-21.03-29.72-21.53h0Z"/>
      <path class="cls-9" d="M184.33,218.22s11.87-15.85,34.28-23.51c5.13-1.8,12.67-5.08,24.16-5.15,5.67,0,5.77-.75,8.56,8.19,1.12-4.56,1.77-8.56,4.65-12.84,2.88-4.28,6.14-12.56,6.61-15.63-3.35,2.05-13.31,8.28-19.26,8.28s-31.79-.16-55.37,26.4c-6.2,7.94-5.34,10.98-5.34,10.98l1.71,3.29h0Z"/>
      <path class="cls-9" d="M137.44,236.24s-5.98-9-30.04-9c-4.47,0-4.58,2.05-4.58,4.58s4.64,9.47,5.45,13.38c-1.06.06-1.24-.37-3.6-4.34s-9.8-12.9-21.9-20.85c2.11,0,7.75.37,12.78-.81,5.03-1.18,4.03-.99,7.13-.99s26.95,2.51,35.42,16.47c-.28.84-.66,1.56-.66,1.56h0Z"/>
      <path class="cls-13" d="M162.07,271.7c1.24,0,1.92,1.3,2.73,1.3s3.79-1.67,8.19-1.67,9.68-2.48,10.92-4.96,2.36-.62,1.61.81-4.4,5.46-11.29,5.46-7.01,1.24-8.38,1.74-4.09.43-5.21-1.43c-1.12-1.86,1.43-1.24,1.43-1.24h0Z"/>
    </g>
  </g>
  <g>
    <g>
      <g>
        <path d="M488.35,102.54c.18.18.54.54.54.72,0,.36-.18,1.26-.36,1.98l-.18,2.52c-3.24.54-5.95.54-7.03,3.06-1.08,2.34-1.98,15.68-2.16,18.92l-7.75,103.06,81.44-.18c7.39,0,9.19-1.62,10.81-7.39h4.86c-1.62,12.61-3.42,25.04-5.22,37.66h-.54c-2.88-1.08-6.12-1.26-9.01-1.62l-25.59-.54h-88.65l-2.34.54h-1.08c2.52-11.71,4.14-23.78,5.04-35.85l6.85-92.25c.54-6.49,1.44-12.97,1.44-19.64,0-3.78-.54-7.39-1.44-10.99h40.36Z"/>
        <path d="M629.98,136.78l-.54,5.41c-7.39.72-7.39,1.8-7.93,9.73l-4.87,69.19-1.44,20.54c-.18,1.8-.18,3.78-.18,5.59,0,4.68.18,9.01,1.44,13.51h-35.13c4.87-11.17,5.59-28.11,6.67-42.34l1.8-22.52,3.06-43.78c.18-3.24-.18-10.45-1.26-15.31h38.38ZM627.27,102.72l-1.8,26.85h-31.53l1.98-26.85h31.35Z"/>
        <path d="M687.81,102.72c0,1.8,0,3.42-.36,5.23-2.7.54-4.32.9-5.23,1.8-1.26,1.08-1.62,5.04-1.98,9.01l-1.08,12.25-3.24,45.04-4.69,66.12c-.36,6.31-.18,13.51,2.34,18.56h-36.58v-.36c4.68-9.91,6.12-27.75,7.03-40.18l4.86-67.57,1.62-21.98c.36-3.78.54-9.91.54-15.31,0-4.32-.18-8.47-.54-12.61h37.3Z"/>
        <path d="M742.41,136.78l-.54,5.41c-7.39.72-7.39,1.8-7.93,9.73l-4.86,69.19-1.44,20.54c-.18,1.8-.18,3.78-.18,5.59,0,4.68.18,9.01,1.44,13.51h-35.13c4.86-11.17,5.58-28.11,6.67-42.34l1.8-22.52,3.06-43.78c.18-3.24-.18-10.45-1.26-15.31h38.38ZM739.71,102.72l-1.8,26.85h-31.53l1.98-26.85h31.35Z"/>
        <path d="M810.7,102.9l-.36,5.23c-5.95.9-7.03,1.62-7.39,7.21l-2.16,22.88,20.72.18c5.41,0,7.57-1.44,8.83-6.85h4.86l-5.4,34.59c-4.14-1.26-8.29-2.16-12.79-2.16h-18.2l-3.96,49.55c-.18,2.34-.36,4.86-.36,7.39,0,8.65,2.88,10.99,11.17,10.99,6.31,0,19.46-1.08,20.18-10.81l5.23.18-5.77,38.74c-1.44-.54-2.88-.9-4.5-.9-1.8,0-8.29,1.44-12.61,2.16-3.24.54-6.49.72-9.73.72-8.65,0-18.38-2.16-24.68-8.11-5.95-5.41-8.65-14.41-8.65-22.34,0-2.34.36-6.67.54-8.83l4.86-58.56h-8.29c-5.22.18-5.77.54-7.57,6.85h-4.86l5.04-34.23c3.6.72,7.21,1.44,10.81,1.44l6.85.18,1.8-24.5c.18-2.52-.54-8.29-.9-10.99h37.3Z"/>
        <path d="M887.27,102.9l-.18,4.68c-7.03,1.44-7.21,2.16-7.93,15.13l-1.26,22.52h.72c4.87-4.86,16.4-9.73,23.06-11.17,5.59-1.44,11.53-1.8,17.48-2.16h1.26c3.96.36,8.47.54,12.25,1.44,6.13,1.8,12.07,3.96,16.94,8.11,6.49,5.23,9.37,13.69,10.09,24.32.18,3.24.18,5.95.18,12.43l-1.62,30.09c-.54,6.49-1.08,12.97-1.26,19.46l-.18.36c-.18,6.31-.54,12.61-.54,18.92v.54c-.18,3.96,0,7.93,1.08,11.89,0,.36.18.54.18.9l-.18.72h-33.51c2.34-9.01,3.96-18.2,4.5-27.57l1.08-18.74,1.08-18.38c0-1.62.36-13.69.36-16.94,0-9.01-1.08-13.33-8.47-18.2-3.6-1.62-7.75-1.8-11.71-2.34h-1.08c-9.91.9-19.82,2.88-27.21,9.55-2.52,1.98-5.04,4.86-6.85,7.21,0,.54-.18,4.14-.36,6.31l-4.14,65.4c-.18,4.68,0,9.01.9,13.69h-33.69c3.42-10.09,4.68-20.9,5.41-31.53l7.39-106.84c.18-2.88.18-5.95.18-8.83,0-3.78-.18-7.39-.9-10.99h36.94Z"/>
      </g>
      <g>
        <path class="cls-12" d="M488.35,102.54c.18.18.54.54.54.72,0,.36-.18,1.26-.36,1.98l-.18,2.52c-3.24.54-5.95.54-7.03,3.06-1.08,2.34-1.98,15.68-2.16,18.92l-7.75,103.06,81.44-.18c7.39,0,9.19-1.62,10.81-7.39h4.86c-1.62,12.61-3.42,25.04-5.22,37.66h-.54c-2.88-1.08-6.12-1.26-9.01-1.62l-25.59-.54h-88.65l-2.34.54h-1.08c2.52-11.71,4.14-23.78,5.04-35.85l6.85-92.25c.54-6.49,1.44-12.97,1.44-19.64,0-3.78-.54-7.39-1.44-10.99h40.36Z"/>
        <path class="cls-12" d="M629.98,136.78l-.54,5.41c-7.39.72-7.39,1.8-7.93,9.73l-4.87,69.19-1.44,20.54c-.18,1.8-.18,3.78-.18,5.59,0,4.68.18,9.01,1.44,13.51h-35.13c4.87-11.17,5.59-28.11,6.67-42.34l1.8-22.52,3.06-43.78c.18-3.24-.18-10.45-1.26-15.31h38.38ZM627.27,102.72l-1.8,26.85h-31.53l1.98-26.85h31.35Z"/>
        <path class="cls-12" d="M687.81,102.72c0,1.8,0,3.42-.36,5.23-2.7.54-4.32.9-5.23,1.8-1.26,1.08-1.62,5.04-1.98,9.01l-1.08,12.25-3.24,45.04-4.69,66.12c-.36,6.31-.18,13.51,2.34,18.56h-36.58v-.36c4.68-9.91,6.12-27.75,7.03-40.18l4.86-67.57,1.62-21.98c.36-3.78.54-9.91.54-15.31,0-4.32-.18-8.47-.54-12.61h37.3Z"/>
        <path class="cls-12" d="M742.41,136.78l-.54,5.41c-7.39.72-7.39,1.8-7.93,9.73l-4.86,69.19-1.44,20.54c-.18,1.8-.18,3.78-.18,5.59,0,4.68.18,9.01,1.44,13.51h-35.13c4.86-11.17,5.58-28.11,6.67-42.34l1.8-22.52,3.06-43.78c.18-3.24-.18-10.45-1.26-15.31h38.38ZM739.71,102.72l-1.8,26.85h-31.53l1.98-26.85h31.35Z"/>
        <path class="cls-12" d="M810.7,102.9l-.36,5.23c-5.95.9-7.03,1.62-7.39,7.21l-2.16,22.88,20.72.18c5.41,0,7.57-1.44,8.83-6.85h4.86l-5.4,34.59c-4.14-1.26-8.29-2.16-12.79-2.16h-18.2l-3.96,49.55c-.18,2.34-.36,4.86-.36,7.39,0,8.65,2.88,10.99,11.17,10.99,6.31,0,19.46-1.08,20.18-10.81l5.23.18-5.77,38.74c-1.44-.54-2.88-.9-4.5-.9-1.8,0-8.29,1.44-12.61,2.16-3.24.54-6.49.72-9.73.72-8.65,0-18.38-2.16-24.68-8.11-5.95-5.41-8.65-14.41-8.65-22.34,0-2.34.36-6.67.54-8.83l4.86-58.56h-8.29c-5.22.18-5.77.54-7.57,6.85h-4.86l5.04-34.23c3.6.72,7.21,1.44,10.81,1.44l6.85.18,1.8-24.5c.18-2.52-.54-8.29-.9-10.99h37.3Z"/>
        <path class="cls-12" d="M887.27,102.9l-.18,4.68c-7.03,1.44-7.21,2.16-7.93,15.13l-1.26,22.52h.72c4.87-4.86,16.4-9.73,23.06-11.17,5.59-1.44,11.53-1.8,17.48-2.16h1.26c3.96.36,8.47.54,12.25,1.44,6.13,1.8,12.07,3.96,16.94,8.11,6.49,5.23,9.37,13.69,10.09,24.32.18,3.24.18,5.95.18,12.43l-1.62,30.09c-.54,6.49-1.08,12.97-1.26,19.46l-.18.36c-.18,6.31-.54,12.61-.54,18.92v.54c-.18,3.96,0,7.93,1.08,11.89,0,.36.18.54.18.9l-.18.72h-33.51c2.34-9.01,3.96-18.2,4.5-27.57l1.08-18.74,1.08-18.38c0-1.62.36-13.69.36-16.94,0-9.01-1.08-13.33-8.47-18.2-3.6-1.62-7.75-1.8-11.71-2.34h-1.08c-9.91.9-19.82,2.88-27.21,9.55-2.52,1.98-5.04,4.86-6.85,7.21,0,.54-.18,4.14-.36,6.31l-4.14,65.4c-.18,4.68,0,9.01.9,13.69h-33.69c3.42-10.09,4.68-20.9,5.41-31.53l7.39-106.84c.18-2.88.18-5.95.18-8.83,0-3.78-.18-7.39-.9-10.99h36.94Z"/>
      </g>
    </g>
    <g>
      <path class="cls-6" d="M475.43,285.55v2.85h-21.05v14.39h19.94v2.85h-19.94v17.96h-3.28v-38.04h24.33Z"/>
      <path class="cls-6" d="M492.38,294.77c3.09,0,7.58.43,9.7,2.94,1.5,1.79,1.5,3.96,1.5,6.18v14.39c0,1.54.1,3.91.82,5.31h-3.09c-.39-1.21-.53-2.46-.58-3.72-.72,1.4-1.5,2.37-2.94,3.04-2.03.92-4.78,1.06-6.95,1.06-5.94,0-10.67-1.35-10.67-8.3,0-5.21,3.14-8.4,8.35-8.5l8.88-.24c2.03-.05,3.28-.24,3.28-3.96,0-2.27-.39-3.57-2.61-4.59-1.83-.82-3.91-.82-5.94-.82-4.3,0-7.72.77-7.82,5.89h-3.09c.1-6.95,5.12-8.69,11.15-8.69ZM497.98,309.55l-8.59.19c-1.74.05-3.96.58-5.12,2.03-.82,1.06-1.06,2.8-1.06,4.15,0,4.97,3.91,5.31,7.87,5.31,5.84,0,9.56-1.74,9.56-8.16v-4.59c-.63.72-1.74,1.01-2.66,1.06Z"/>
      <path class="cls-6" d="M530.76,303.13c0-1.45-.1-2.75-1.21-3.81-1.54-1.5-4.73-1.74-6.81-1.74s-5.41.29-7,1.88c-.92.97-1.21,2.46-1.21,3.77,0,3.38,2.17,3.72,4.92,4.1l8.4,1.11c4.3.58,6.71,2.66,6.71,7.19,0,7.24-5.89,8.35-11.78,8.35-3.28,0-7.72-.48-9.99-3.14-1.54-1.79-1.79-4.06-1.83-6.32h3.09c0,3.67.19,6.66,8.93,6.66,4.01,0,8.54-.34,8.54-5.41,0-3.86-1.93-4.25-5.26-4.68l-7.97-1.06c-4.3-.58-6.76-2.32-6.76-6.95,0-6.9,5.5-8.3,11.25-8.3,2.9,0,7,.48,9.08,2.66,1.59,1.69,1.93,3.48,1.98,5.7h-3.09Z"/>
      <path class="cls-6" d="M545.25,288.4h3.04v6.76h7.48v2.85h-7.48v17.86c0,3.43,0,5.26,5.17,5.26,1.16,0,2.32-.1,3.48-.19v2.9c-.97.15-1.98.15-2.99.15-2.7,0-6.52-.34-7.97-2.94-.63-1.26-.72-2.99-.72-4.39v-18.64h-6.32v-2.85h6.32v-6.76Z"/>
      <path class="cls-6" d="M594.21,285.55c4.2,0,8.93.19,12.12,3.38,3.81,3.91,4.34,10.23,4.34,15.45,0,4.44-.34,11.1-3.14,14.77-3.14,4.06-7.48,4.44-12.26,4.44h-16.42v-38.04h15.35ZM582.14,320.75h13.37c4.34,0,8.69-.68,10.48-5.26,1.25-3.28,1.4-7.53,1.4-11.01,0-4.15-.29-9.75-3.04-13.04-2.56-2.99-6.42-3.04-10.04-3.04h-12.17v32.35Z"/>
      <path class="cls-6" d="M629.12,294.77c3.09,0,7.58.43,9.7,2.94,1.5,1.79,1.5,3.96,1.5,6.18v14.39c0,1.54.1,3.91.82,5.31h-3.09c-.39-1.21-.53-2.46-.58-3.72-.72,1.4-1.5,2.37-2.95,3.04-2.03.92-4.78,1.06-6.95,1.06-5.94,0-10.67-1.35-10.67-8.3,0-5.21,3.14-8.4,8.35-8.5l8.88-.24c2.03-.05,3.28-.24,3.28-3.96,0-2.27-.39-3.57-2.61-4.59-1.83-.82-3.91-.82-5.94-.82-4.3,0-7.72.77-7.82,5.89h-3.09c.1-6.95,5.12-8.69,11.15-8.69ZM634.72,309.55l-8.59.19c-1.74.05-3.96.58-5.12,2.03-.82,1.06-1.06,2.8-1.06,4.15,0,4.97,3.91,5.31,7.87,5.31,5.84,0,9.56-1.74,9.56-8.16v-4.59c-.63.72-1.74,1.01-2.66,1.06Z"/>
      <path class="cls-6" d="M651.18,295.16l.14,3.86c2.03-3.23,5.46-4.25,9.12-4.25,6.52,0,10.28,2.94,10.28,9.7v19.12h-3.04v-18.64c0-5.41-2.56-7.43-7.87-7.43-2.46,0-4.88.68-6.66,2.51-1.5,1.54-1.83,4.83-1.83,6.9v16.66h-3.04v-28.44h2.9Z"/>
      <path class="cls-6" d="M681.55,295.16l.14,3.19c2.27-2.46,4.78-3.57,8.11-3.57,2.22,0,4.83.53,6.57,2.03.87.72,1.4,1.59,1.98,2.56,2.32-3.43,4.63-4.59,8.74-4.59,3.33,0,7.19,1.16,8.64,4.44.63,1.45.72,3.19.72,4.78v19.6h-3.09v-19.17c0-1.21,0-2.51-.43-3.62-.97-2.56-3.62-3.23-6.08-3.23-2.61,0-5.6.72-6.95,3.19-.68,1.26-.77,2.8-.77,4.2v18.64h-3.04v-18.97c0-1.69-.05-3.38-1.06-4.83-1.26-1.83-3.57-2.22-5.65-2.22-4.39,0-7.68,2.08-7.68,6.81v19.21h-3.04v-28.44h2.9Z"/>
      <path class="cls-6" d="M735.53,294.77c3.09,0,7.58.43,9.7,2.94,1.5,1.79,1.5,3.96,1.5,6.18v14.39c0,1.54.1,3.91.82,5.31h-3.09c-.39-1.21-.53-2.46-.58-3.72-.72,1.4-1.5,2.37-2.94,3.04-2.03.92-4.78,1.06-6.95,1.06-5.94,0-10.67-1.35-10.67-8.3,0-5.21,3.14-8.4,8.35-8.5l8.88-.24c2.03-.05,3.28-.24,3.28-3.96,0-2.27-.39-3.57-2.61-4.59-1.83-.82-3.91-.82-5.94-.82-4.3,0-7.72.77-7.82,5.89h-3.09c.1-6.95,5.12-8.69,11.15-8.69ZM741.13,309.55l-8.59.19c-1.74.05-3.96.58-5.12,2.03-.82,1.06-1.06,2.8-1.06,4.15,0,4.97,3.91,5.31,7.87,5.31,5.84,0,9.56-1.74,9.56-8.16v-4.59c-.63.72-1.74,1.01-2.66,1.06Z"/>
      <path class="cls-6" d="M770.92,295.16h4.39l-14.39,13.23,15.88,15.21h-4.44l-14.87-14.82v14.82h-3.04v-38.04h3.04v22.45l13.42-12.84Z"/>
      <path class="cls-6" d="M800.67,323.6l-.19-3.86c-2.03,3.23-5.46,4.25-9.08,4.25-6.57,0-10.33-2.9-10.33-9.66v-19.17h3.04v18.64c0,5.46,2.61,7.44,7.87,7.44,2.51,0,4.92-.68,6.71-2.51,1.45-1.54,1.79-4.83,1.79-6.9v-16.66h3.04v28.44h-2.85Z"/>
      <path class="cls-6" d="M843.25,285.55c4.2,0,8.93.19,12.12,3.38,3.81,3.91,4.34,10.23,4.34,15.45,0,4.44-.34,11.1-3.14,14.77-3.14,4.06-7.48,4.44-12.26,4.44h-16.42v-38.04h15.35ZM831.18,320.75h13.37c4.34,0,8.69-.68,10.48-5.26,1.25-3.28,1.4-7.53,1.4-11.01,0-4.15-.29-9.75-3.04-13.04-2.56-2.99-6.42-3.04-10.04-3.04h-12.17v32.35Z"/>
      <path class="cls-6" d="M868.99,297.33c2.37-2.17,6.08-2.56,9.17-2.56,4.25,0,9.03.82,11.1,5.02,1.4,2.85,1.4,7.05,1.4,10.23,0,3.96-.14,8.59-3.33,11.44-2.37,2.12-6.08,2.51-9.17,2.51s-6.71-.39-9.17-2.51c-3.33-2.9-3.38-8.01-3.38-12.07s.05-9.12,3.38-12.07ZM868.65,309.79c0,7.63.96,11.39,9.51,11.39,3.09,0,6.95-.39,8.4-3.62,1.06-2.32,1.06-6.32,1.06-8.88,0-7.58-1.11-11.1-9.46-11.1-9.22,0-9.51,4.44-9.51,12.21Z"/>
      <path class="cls-6" d="M897.62,295.16l6.61,25.97,6.71-25.97h4.2l6.66,25.97,6.66-25.97h3.19l-7.63,28.44h-4.35l-6.66-25.68-6.61,25.68h-4.34l-7.68-28.44h3.23Z"/>
      <path class="cls-6" d="M939.58,295.16l.14,3.86c2.03-3.23,5.46-4.25,9.12-4.25,6.52,0,10.28,2.94,10.28,9.7v19.12h-3.04v-18.64c0-5.41-2.56-7.43-7.87-7.43-2.46,0-4.88.68-6.66,2.51-1.5,1.54-1.83,4.83-1.83,6.9v16.66h-3.04v-28.44h2.9Z"/>
      <path class="cls-6" d="M970.96,285.55v38.04h-3.09v-38.04h3.09Z"/>
      <path class="cls-6" d="M981.68,297.33c2.37-2.17,6.08-2.56,9.17-2.56,4.25,0,9.03.82,11.1,5.02,1.4,2.85,1.4,7.05,1.4,10.23,0,3.96-.14,8.59-3.33,11.44-2.37,2.12-6.08,2.51-9.17,2.51s-6.71-.39-9.17-2.51c-3.33-2.9-3.38-8.01-3.38-12.07s.05-9.12,3.38-12.07ZM981.34,309.79c0,7.63.96,11.39,9.51,11.39,3.09,0,6.95-.39,8.4-3.62,1.06-2.32,1.06-6.32,1.06-8.88,0-7.58-1.11-11.1-9.46-11.1-9.22,0-9.51,4.44-9.51,12.21Z"/>
      <path class="cls-6" d="M1021.27,294.77c3.09,0,7.58.43,9.7,2.94,1.5,1.79,1.5,3.96,1.5,6.18v14.39c0,1.54.1,3.91.82,5.31h-3.09c-.39-1.21-.53-2.46-.58-3.72-.72,1.4-1.5,2.37-2.94,3.04-2.03.92-4.78,1.06-6.95,1.06-5.94,0-10.67-1.35-10.67-8.3,0-5.21,3.14-8.4,8.35-8.5l8.88-.24c2.03-.05,3.28-.24,3.28-3.96,0-2.27-.39-3.57-2.61-4.59-1.83-.82-3.91-.82-5.94-.82-4.3,0-7.72.77-7.82,5.89h-3.09c.1-6.95,5.12-8.69,11.15-8.69ZM1026.87,309.55l-8.59.19c-1.74.05-3.96.58-5.12,2.03-.82,1.06-1.06,2.8-1.06,4.15,0,4.97,3.91,5.31,7.87,5.31,5.84,0,9.56-1.74,9.56-8.16v-4.59c-.63.72-1.74,1.01-2.66,1.06Z"/>
      <path class="cls-6" d="M1062.89,323.6h-2.75l-.29-3.48c-2.17,3.28-5.36,3.86-9.03,3.86-4.54,0-8.59-1.4-10.04-6.08-.87-2.85-1.11-5.94-1.11-8.88,0-8.21,1.69-14.24,11.2-14.24,3.57,0,6.9.72,8.98,3.91v-13.13h3.04v38.04ZM1042.71,309.4c0,6.76.58,11.78,8.69,11.78,7.53,0,8.45-5.55,8.45-11.78s-.92-11.83-8.59-11.83-8.55,5.31-8.55,11.83Z"/>
      <path class="cls-6" d="M1072.98,310.27c0,7.44,1.5,10.96,9.46,10.96,4.68,0,8.5-.97,8.69-6.42h3.09c-.58,7-5.02,9.17-11.49,9.17-10.43,0-12.79-5.12-12.79-14.63,0-8.98,2.46-14.58,12.41-14.58,4.49,0,9.27,1.4,10.91,6.03.82,2.32,1.01,4.83,1.01,7.29v2.17h-21.29ZM1091.18,307.57c0-6.66-1.79-10.04-8.98-10.04s-8.83,3.57-9.22,10.04h18.2Z"/>
      <path class="cls-6" d="M1103.79,295.16l.14,3.19c2.37-3.09,4.88-3.57,8.59-3.57h2.12v2.94c-.97-.05-1.88-.1-2.85-.1-2.99,0-5.55.53-7.05,3.38-.68,1.26-.82,2.7-.82,4.1v18.49h-3.04v-28.44h2.9Z"/>
    </g>
  </g>
</svg>